<?xml version="1.0" encoding="utf-8"?>
<!-- Generator: Adobe Illustrator 16.0.0, SVG Export Plug-In . SVG Version: 6.00 Build 0)  -->
<!DOCTYPE svg PUBLIC "-//W3C//DTD SVG 1.1//EN" "http://www.w3.org/Graphics/SVG/1.1/DTD/svg11.dtd">
<svg version="1.1" id="Layer_1" xmlns="http://www.w3.org/2000/svg" xmlns:xlink="http://www.w3.org/1999/xlink" x="0px" y="0px"
	 width="1418px" height="665.66px" viewBox="0 0 1418 665.66" enable-background="new 0 0 1418 665.66" xml:space="preserve">
<g>
	<path fill="#FFFFFF" d="M154.759,59.312h90.287l-99.295,467.136H55.464L154.759,59.312z"/>
	<path fill="#FFFFFF" d="M273.51,282.412l1.808-8.505c17.245-81.127,78.697-108.605,146.739-108.605
		c107.297,0,118.122,44.489,104.632,107.951l-39.356,185.154c-6.953,32.713-8.189,47.76-3.341,68.042h-86.361
		c-3.524-11.122-3.221-24.861-3.334-36.638h-1.309c-28.724,36.638-56.187,45.797-99.367,45.797
		c-62.808,0-73.649-53.648-63.636-100.754c14.046-66.08,46.572-92.904,112.342-109.915l53.952-13.739
		c28.354-7.197,39.738-17.665,44.745-41.218c5.702-26.824-2.598-43.181-32.694-43.181c-27.479,0-45.766,18.319-51.607,45.797
		l-2.086,9.814H273.51z M423.918,350.455c-14.378,9.159-30.677,15.048-42.356,17.664c-38.307,7.852-56.455,25.517-63.13,56.92
		c-5.702,26.824-0.616,49.069,23.591,49.069c24.208,0,58.949-15.702,67.154-54.303L423.918,350.455z"/>
	<path fill="#FFFFFF" d="M611.797,174.46h86.361l-7.648,35.984h1.309c29.712-32.058,60.626-45.143,98.573-45.143
		c41.218,0,67.003,20.282,69.168,56.266h1.309c21.666-37.292,58.411-56.266,100.938-56.266c59.537,0,79.743,37.292,65.28,105.334
		l-54.376,255.812h-90.287l52.29-245.999c6.258-29.441-0.079-45.797-25.595-45.797c-28.787,0-51.278,19.627-59.9,60.191
		l-49.23,231.605H709.7l52.289-245.999c6.258-29.441-0.079-45.797-25.595-45.797c-28.787,0-51.277,19.627-59.9,60.191
		l-49.23,231.605h-90.287L611.797,174.46z"/>
	<path fill="#FFFFFF" d="M1107.714,174.46h86.361l-7.927,37.292h1.309c26.581-32.712,54.363-46.452,89.692-46.452
		c73.931,0,96.409,54.303,68.595,185.154c-27.813,130.85-73.377,185.152-147.308,185.152c-34.021,0-53.999-13.739-66.992-41.872
		h-1.309l-31.43,147.861h-90.287L1107.714,174.46z M1183.736,466.257c39.256,0,55.45-39.255,71.722-115.802
		c16.271-76.548,16.764-115.803-22.491-115.803c-39.909,0-56.104,39.255-72.375,115.803
		C1144.32,427.002,1143.827,466.257,1183.736,466.257z"/>
</g>
</svg>
